<svg version="1.1" xmlns="http://www.w3.org/2000/svg" xmlns:xlink="http://www.w3.org/1999/xlink" width="111.60885" height="140.09942" viewBox="0,0,111.60885,140.09942"><g transform="translate(-173.72017,-114.45441)"><g data-paper-data="{&quot;isPaintingLayer&quot;:true}" fill-rule="nonzero" stroke-linecap="butt" stroke-linejoin="miter" stroke-miterlimit="10" stroke-dasharray="" stroke-dashoffset="0" style="mix-blend-mode: normal"><path d="M175.22017,225.68172v-82.6854h82.6854v82.6854z" fill="#53c8e8" stroke="#000000" stroke-width="3"/><text transform="translate(183.58836,237.75978) scale(0.24068,0.24068)" font-size="40" xml:space="preserve" fill="#ffffff" fill-rule="nonzero" stroke="none" stroke-width="1" stroke-linecap="butt" stroke-linejoin="miter" stroke-miterlimit="10" stroke-dasharray="" stroke-dashoffset="0" font-family="Pixel" font-weight="normal" text-anchor="start" style="mix-blend-mode: normal"><tspan x="0" dy="0">Potato Chips</tspan></text><text transform="translate(207.25982,251.98658) scale(0.2445,0.2445)" font-size="40" xml:space="preserve" fill="#288c00" fill-rule="nonzero" stroke="none" stroke-width="1" stroke-linecap="butt" stroke-linejoin="miter" stroke-miterlimit="10" stroke-dasharray="" stroke-dashoffset="0" font-family="Pixel" font-weight="normal" text-anchor="start" style="mix-blend-mode: normal"><tspan x="0" dy="0">2 P</tspan></text><path d="M198.71435,210.07222l-15.54549,-55.8486l50.66677,1.15152l10.93942,50.09101z" fill="#ff0000" stroke="none" stroke-width="0"/><text transform="translate(197.56283,167.67136) scale(0.33959,0.33959)" font-size="40" xml:space="preserve" fill="#ffe500" fill-rule="nonzero" stroke="none" stroke-width="1" stroke-linecap="butt" stroke-linejoin="miter" stroke-miterlimit="10" stroke-dasharray="" stroke-dashoffset="0" font-family="Handwriting" font-weight="normal" text-anchor="start" style="mix-blend-mode: normal"><tspan x="0" dy="0">Chips</tspan></text><path d="M207.92649,188.76914c0,2.86185 -1.93332,5.18183 -4.31819,5.18183c-2.38487,0 -4.31819,-2.31998 -4.31819,-5.18183c0,-2.86185 1.93332,-5.18183 4.31819,-5.18183c2.38487,0 4.31819,2.31998 4.31819,5.18183z" fill="#ffe500" stroke="none" stroke-width="0"/><path d="M222.89622,182.14792c0,2.38487 -3.09331,4.31819 -6.90911,4.31819c-3.81579,0 -6.90911,-1.93332 -6.90911,-4.31819c0,-2.38487 3.09331,-4.31819 6.90911,-4.31819c3.81579,0 6.90911,1.93332 6.90911,4.31819z" fill="#ffe500" stroke="none" stroke-width="0"/><path d="M222.89622,196.54188c0,1.11294 -3.47998,2.01516 -7.77274,2.01516c-4.29277,0 -7.77274,-0.90222 -7.77274,-2.01516c0,-1.11294 3.47998,-2.01516 7.77274,-2.01516c4.29277,0 7.77274,0.90222 7.77274,2.01516z" fill="#ffe500" stroke="none" stroke-width="0"/><path d="M239.01746,191.93581c0,3.02084 -2.06221,5.46971 -4.60607,5.46971c-2.54386,0 -4.60607,-2.44887 -4.60607,-5.46971c0,-3.02084 2.06221,-5.46971 4.60607,-5.46971c2.54386,0 4.60607,2.44887 4.60607,5.46971z" fill="#ffe500" stroke="none" stroke-width="0"/><path d="M226.92653,190.49642c0,0.95395 -1.15999,1.72728 -2.59091,1.72728c-1.43092,0 -2.59091,-0.77333 -2.59091,-1.72728c0,-0.95395 1.15999,-1.72728 2.59091,-1.72728c1.43092,0 2.59091,0.77333 2.59091,1.72728z" fill="#ffe500" stroke="none" stroke-width="0"/><path d="M230.09321,179.557c-1.43092,0 -2.59091,-1.41776 -2.59091,-3.16667c0,-1.7489 1.15999,-3.16667 2.59091,-3.16667c1.43092,0 2.59091,1.41776 2.59091,3.16667c0,1.7489 -1.15999,3.16667 -2.59091,3.16667z" fill="#ffe500" stroke="none" stroke-width="0"/><path d="M202.74466,176.10245c0,1.58991 -1.41777,2.87879 -3.16667,2.87879c-1.74891,0 -3.16667,-1.28888 -3.16667,-2.87879c0,-1.58991 1.41777,-2.87879 3.16667,-2.87879c1.74891,0 3.16667,1.28888 3.16667,2.87879z" fill="#ffe500" stroke="none" stroke-width="0"/><path d="M205.62345,201.72371c0,1.74891 -1.0311,3.16667 -2.30304,3.16667c-1.27193,0 -2.30304,-1.41777 -2.30304,-3.16667c0,-1.74891 1.0311,-3.16667 2.30304,-3.16667c1.27193,0 2.30304,1.41777 2.30304,3.16667z" fill="#ffe500" stroke="none" stroke-width="0"/><path d="M217.13863,201.43583c3.8158,0 6.90911,0.64444 6.90911,1.4394c0,0.79496 -3.09332,1.4394 -6.90911,1.4394c-3.8158,0 -6.90911,-0.64444 -6.90911,-1.4394c0,-0.79496 3.09332,-1.4394 6.90911,-1.4394z" fill="#ffe500" stroke="none" stroke-width="0"/><text transform="translate(207.04059,152.36061) rotate(-18.2592) scale(0.25765,0.25765)" font-size="40" xml:space="preserve" fill="#ffffff" fill-rule="nonzero" stroke="none" stroke-width="1" stroke-linecap="butt" stroke-linejoin="miter" stroke-miterlimit="10" stroke-dasharray="" stroke-dashoffset="0" font-family="Pixel" font-weight="normal" text-anchor="start" style="mix-blend-mode: normal"><tspan x="0" dy="0">Item Comprado!</tspan></text></g></g></svg>