<svg version="1.1" xmlns="http://www.w3.org/2000/svg" xmlns:xlink="http://www.w3.org/1999/xlink" width="91.12051" height="117.51912" viewBox="0,0,91.12051,117.51912"><g transform="translate(-189.97018,-143.5)"><g data-paper-data="{&quot;isPaintingLayer&quot;:true}" fill-rule="nonzero" stroke-linecap="butt" stroke-linejoin="miter" stroke-miterlimit="10" stroke-dasharray="" stroke-dashoffset="0" style="mix-blend-mode: normal"><path d="M191.47018,232.76897v-87.76897h87.76897v87.76897z" fill="#14b5ff" stroke="#000000" stroke-width="3"/><text transform="translate(200.44121,245.22626) scale(0.25462,0.25462)" font-size="40" xml:space="preserve" fill="#ffffff" fill-rule="nonzero" stroke="none" stroke-width="1" stroke-linecap="butt" stroke-linejoin="miter" stroke-miterlimit="10" stroke-dasharray="" stroke-dashoffset="0" font-family="Pixel" font-weight="normal" text-anchor="start" style="mix-blend-mode: normal"><tspan x="0" dy="0">Gorro do Noel</tspan></text><text transform="translate(218.48335,258.29405) scale(0.25953,0.25953)" font-size="40" xml:space="preserve" fill="#ffffff" fill-rule="nonzero" stroke="none" stroke-width="1" stroke-linecap="butt" stroke-linejoin="miter" stroke-miterlimit="10" stroke-dasharray="" stroke-dashoffset="0" font-family="Pixel" font-weight="normal" text-anchor="start" style="mix-blend-mode: normal"><tspan x="0" dy="0">Grátis</tspan></text><path d="M210.25647,231.33897v-24.5328h57.37792v24.5328z" fill="#26b700" stroke="none" stroke-width="0"/><path d="M222.12819,208.50825v-27.36963h34.05493v27.36963z" fill="#26b700" stroke="none" stroke-width="0"/><g stroke="none" stroke-width="0"><path d="M219.8377,181.1103v-5.21284h38.46713v5.21284z" fill="#ffffff"/><path d="M222.35424,176.97599v-15.99801h33.07454v15.99801z" fill="#ff0000"/><path d="M247.69941,162.65567v-7.19012h14.73974v7.19012z" fill="#ff0000"/><path d="M269.26976,159.50999c0,3.12716 -2.73626,5.66222 -6.1116,5.66222c-3.37534,0 -6.1116,-2.53506 -6.1116,-5.66222c0,-3.12716 2.73626,-5.66222 6.1116,-5.66222c3.37534,0 6.1116,2.53506 6.1116,5.66222z" fill="#ffffff"/></g><text transform="translate(197.88844,195.73894) rotate(-23.73977) scale(0.29215,0.29215)" font-size="40" xml:space="preserve" fill="#0140ff" fill-rule="nonzero" stroke="none" stroke-width="1" stroke-linecap="butt" stroke-linejoin="miter" stroke-miterlimit="10" stroke-dasharray="" stroke-dashoffset="0" font-family="Pixel" font-weight="normal" text-anchor="start" style="mix-blend-mode: normal"><tspan x="0" dy="0">Item Comprado</tspan></text></g></g></svg>