<svg version="1.1" xmlns="http://www.w3.org/2000/svg" xmlns:xlink="http://www.w3.org/1999/xlink" width="642.64264" height="376.8769" viewBox="0,0,642.64264,376.8769"><g transform="translate(57.29728,2.43243)"><g data-paper-data="{&quot;isPaintingLayer&quot;:true}" fill-rule="nonzero" stroke="none" stroke-width="0" stroke-linecap="butt" stroke-linejoin="miter" stroke-miterlimit="10" stroke-dasharray="" stroke-dashoffset="0" style="mix-blend-mode: normal"><path d="M-24.73969,365.43544v-367.86787h524.7947v367.86787z" fill="#00ffeb"/><path d="M66.57658,357.92793v-300.30029h340.84084v300.30029z" fill="#9e9e9e"/><path d="M87.5976,332.4024v-21.47225h67.56757v21.47225z" fill="#ffffff"/><path d="M173.18318,300.90977v-14.31484h76.57658v14.31484z" fill="#ffffff"/><path d="M254.26426,275.14306v-11.45186h49.54955v11.45186z" fill="#ffffff"/><path d="M311.32132,259.39675v-8.5889h60.06006v8.5889z" fill="#ffffff"/><path d="M362.37237,237.9245v-11.45186h45.04505v11.45186z" fill="#ffffff"/><path d="M324.83484,202.13742v-11.45186h36.03604v11.45186z" fill="#ffffff"/><path d="M282.79279,176.37072v-11.45186h30.03003v11.45186z" fill="#ffffff"/><path d="M230.24024,147.74105v-18.60928h34.53453v18.60928z" fill="#ffffff"/><path d="M191.2012,117.67991v-8.5889h33.03303v8.5889z" fill="#ffffff"/><path d="M149.15916,96.20766v-15.74632h36.03604v15.74632z" fill="#ffffff"/><path d="M2.01201,66.1465v-10.02038h139.63964v10.02038z" fill="#ffffff"/><path d="M-57.29727,344.4144v30.03007h642.64264v-30.03007z" fill="#00d01d"/></g></g></svg>