<svg version="1.1" xmlns="http://www.w3.org/2000/svg" xmlns:xlink="http://www.w3.org/1999/xlink" width="17.16144" height="14.8745" viewBox="0,0,17.16144,14.8745"><g transform="translate(-206.375,-157.3755)"><g data-paper-data="{&quot;isPaintingLayer&quot;:true}" fill-rule="nonzero" stroke="none" stroke-linecap="butt" stroke-linejoin="miter" stroke-miterlimit="10" stroke-dasharray="" stroke-dashoffset="0" style="mix-blend-mode: normal"><g><path d="M206.375,172.25v-14.8745h17.16144v14.8745z" fill="#ff2323" stroke-width="0"/><text transform="translate(208.29167,162.48618) scale(0.12763,0.12763)" font-size="40" xml:space="preserve" fill="#ffe924" fill-rule="nonzero" stroke="none" stroke-width="1" stroke-linecap="butt" stroke-linejoin="miter" stroke-miterlimit="10" stroke-dasharray="" stroke-dashoffset="0" font-family="Handwriting" font-weight="normal" text-anchor="start" style="mix-blend-mode: normal"><tspan x="0" dy="0">Chips</tspan></text><path d="M209.66667,168.9375c0,0.51777 -0.3078,0.9375 -0.6875,0.9375c-0.3797,0 -0.6875,-0.41973 -0.6875,-0.9375c0,-0.51777 0.3078,-0.9375 0.6875,-0.9375c0.3797,0 0.6875,0.41973 0.6875,0.9375z" fill="#ffe924" stroke-width="0"/><path d="M212.66667,168.125c0,0.48325 -0.41973,0.875 -0.9375,0.875c-0.51777,0 -0.9375,-0.39175 -0.9375,-0.875c0,-0.48325 0.41973,-0.875 0.9375,-0.875c0.51777,0 0.9375,0.39175 0.9375,0.875z" fill="#ffe924" stroke-width="0"/><path d="M215.41667,170c0,0.06904 -0.36377,0.125 -0.8125,0.125c-0.44873,0 -0.8125,-0.05596 -0.8125,-0.125c0,-0.06904 0.36377,-0.125 0.8125,-0.125c0.44873,0 0.8125,0.05596 0.8125,0.125z" fill="#ffe924" stroke-width="0"/><path d="M219.66667,168.3125c0,0.10355 -0.4757,0.1875 -1.0625,0.1875c-0.5868,0 -1.0625,-0.08395 -1.0625,-0.1875c0,-0.10355 0.4757,-0.1875 1.0625,-0.1875c0.5868,0 1.0625,0.08395 1.0625,0.1875z" fill="#ffe924" stroke-width="0"/><path d="M221.54167,166.25c0,0.55228 -0.53166,1 -1.1875,1c-0.65584,0 -1.1875,-0.44772 -1.1875,-1c0,-0.55228 0.53166,-1 1.1875,-1c0.65584,0 1.1875,0.44772 1.1875,1z" fill="#ffe924" stroke-width="0"/><path d="M215.41667,164.375c0.34518,0 0.625,0.67157 0.625,1.5c0,0.82843 -0.27982,1.5 -0.625,1.5c-0.34518,0 -0.625,-0.67157 -0.625,-1.5c0,-0.82843 0.27982,-1.5 0.625,-1.5z" fill="#ffe924" stroke-width="0"/><path d="M211.54167,164.8125c0,0.5868 -0.50368,1.0625 -1.125,1.0625c-0.62132,0 -1.125,-0.4757 -1.125,-1.0625c0,-0.5868 0.50368,-1.0625 1.125,-1.0625c0.62132,0 1.125,0.4757 1.125,1.0625z" fill="#ffe924" stroke-width="0"/><path d="M221.79167,170.5625c0,0.3797 -0.41973,0.6875 -0.9375,0.6875c-0.51777,0 -0.9375,-0.3078 -0.9375,-0.6875c0,-0.3797 0.41973,-0.6875 0.9375,-0.6875c0.51777,0 0.9375,0.3078 0.9375,0.6875z" fill="#ffe924" stroke-width="0"/><path d="M217.79167,170.5c0,0.13807 -0.33579,0.25 -0.75,0.25c-0.41421,0 -0.75,-0.11193 -0.75,-0.25c0,-0.13807 0.33579,-0.25 0.75,-0.25c0.41421,0 0.75,0.11193 0.75,0.25z" fill="#ffe924" stroke-width="0"/><path d="M211.79167,171.0625c0,0.44873 -0.05596,0.8125 -0.125,0.8125c-0.06904,0 -0.125,-0.36377 -0.125,-0.8125c0,-0.44873 0.05596,-0.8125 0.125,-0.8125c0.06904,0 0.125,0.36377 0.125,0.8125z" fill="#ffe924" stroke-width="0"/></g></g></g></svg>