<svg version="1.1" xmlns="http://www.w3.org/2000/svg" xmlns:xlink="http://www.w3.org/1999/xlink" width="572.81832" height="365.36036" viewBox="0,0,572.81832,365.36036"><g transform="translate(8.48949,2.68168)"><g data-paper-data="{&quot;isPaintingLayer&quot;:true}" fill-rule="nonzero" stroke="none" stroke-width="0" stroke-linecap="butt" stroke-linejoin="miter" stroke-miterlimit="10" stroke-dasharray="" stroke-dashoffset="0" style="mix-blend-mode: normal"><path d="M-8.48949,361.68168v-364.36336h490.98198v364.36336z" fill="#0096ff"/><path d="M-6.48949,362.67868v-44.03904h487.48048v44.03904z" fill="#606060"/><path d="M11.77627,301.36937v-177.18619h69.06907v177.18619z" fill="#b5b5b5"/><path d="M562.82733,277.34535v-1.5015h1.5015v1.5015z" fill="#b5b5b5"/><path d="M82.34685,308.87688v-282.28228h63.06306v282.28228z" fill="#b5b5b5"/><path d="M152.91742,290.85886v-223.72372h97.59759v223.72373z" fill="#b5b5b5"/><path d="M256.52101,295.36337v-219.21922h51.05106v219.21922z" fill="#b5b5b5"/><path d="M313.57808,287.85586v-196.6967h87.08709v196.6967z" fill="#b5b5b5"/><path d="M411.17567,292.36036v-187.68769h52.55255v187.68769z" fill="#b5b5b5"/><path d="M-2.49249,322.64264v-43.54354h481.98198v43.54354z" fill="#42b55f"/><path d="M19.01051,162.9985v-22h20v22z" fill="#ffee5c"/><path d="M51.01051,162.9985v-22h20v22z" fill="#ffee5c"/><path d="M19.01051,214.66517v-22h20v22z" fill="#ffee5c"/><path d="M51.34385,213.33184v-22h20v22z" fill="#ffee5c"/><path d="M89.01051,60.9985v-22h20v22z" fill="#ffee5c"/><path d="M121.01051,60.9985v-22h20v22z" fill="#ffee5c"/><path d="M89.01051,112.66517v-22h20v22z" fill="#ffee5c"/><path d="M121.34385,111.33184v-22h20v22z" fill="#ffee5c"/><path d="M89.01051,143.9985v-22h20v22z" fill="#ffee5c"/><path d="M121.01051,143.9985v-22h20v22z" fill="#ffee5c"/><path d="M158.01051,95.38787v-14.38937h13.08125v14.38937z" fill="#ffee5c"/><path d="M178.9405,95.38787v-14.38937h13.08125v14.38937z" fill="#ffee5c"/><path d="M158.01051,129.18109v-14.38937h13.08125v14.38937z" fill="#ffee5c"/><path d="M179.15852,128.30901v-14.38937h13.08125v14.38937z" fill="#ffee5c"/><path d="M206.01051,95.02891v-15.03041h13.66401v15.03041z" fill="#ffee5c"/><path d="M227.87292,95.02891v-15.03041h13.66401v15.03041z" fill="#ffee5c"/><path d="M206.01051,130.32759v-15.03041h13.66401v15.03041z" fill="#ffee5c"/><path d="M228.10065,129.41666v-15.03041h13.66401v15.03041z" fill="#ffee5c"/><path d="M159.01051,160.52891v-15.03041h13.66401v15.03041z" fill="#ffee5c"/><path d="M180.87292,160.52891v-15.03041h13.66401v15.03041z" fill="#ffee5c"/><path d="M159.01051,195.82759v-15.0304h13.66401v15.0304z" fill="#ffee5c"/><path d="M181.10066,194.91666v-15.0304h13.66401v15.0304z" fill="#ffee5c"/><path d="M208.01051,161.86224v-15.03041h13.66401v15.03041z" fill="#ffee5c"/><path d="M229.87292,161.86224v-15.03041h13.66401v15.03041z" fill="#ffee5c"/><path d="M208.01051,197.16092v-15.0304h13.66401v15.0304z" fill="#ffee5c"/><path d="M230.10066,196.24999v-15.0304h13.66401v15.0304z" fill="#ffee5c"/><path d="M158.51051,231.36224v-15.03041h13.66401v15.03041z" fill="#ffee5c"/><path d="M180.37292,231.36224v-15.03041h13.66401v15.03041z" fill="#ffee5c"/><path d="M158.51051,266.66092v-15.0304h13.66401v15.0304z" fill="#ffee5c"/><path d="M180.60066,265.74999v-15.03041h13.66401v15.03041z" fill="#ffee5c"/><path d="M208.51051,230.86224v-15.03041h13.66401v15.03041z" fill="#ffee5c"/><path d="M230.37292,230.86224v-15.03041h13.66401v15.03041z" fill="#ffee5c"/><path d="M208.51051,266.16092v-15.0304h13.66401v15.0304z" fill="#ffee5c"/><path d="M230.60066,265.24999v-15.03041h13.66401v15.03041z" fill="#ffee5c"/><g fill="#ffee5c"><path d="M88.51051,180.08835v-21.75652h19.77865v21.75652z"/><path d="M120.15636,180.08835v-21.75652h19.77865v21.75652z"/><path d="M88.51051,231.18321v-21.75652h19.77865v21.75652z"/><path d="M120.48601,229.86464v-21.75652h19.77865v21.75652z"/></g><path d="M265.01051,107.36224v-15.0304h13.664v15.0304z" fill="#ffee5c"/><path d="M286.87292,107.36224v-15.0304h13.66401v15.0304z" fill="#ffee5c"/><path d="M265.01051,142.66092v-15.0304h13.664v15.0304z" fill="#ffee5c"/><path d="M287.10065,141.74999v-15.03041h13.66401v15.03041z" fill="#ffee5c"/><path d="M266.51051,178.19557v-15.03041h13.664v15.03041z" fill="#ffee5c"/><path d="M288.37292,178.19557v-15.03041h13.66401v15.03041z" fill="#ffee5c"/><path d="M266.51051,213.49425v-15.03041h13.664v15.03041z" fill="#ffee5c"/><path d="M288.60065,212.58332v-15.03041h13.66401v15.03041z" fill="#ffee5c"/><path d="M319.01051,113.44986v-11.86803h10.78912v11.86803z" fill="#ffee5c"/><path d="M336.2731,113.44986v-11.86803h10.78912v11.86803z" fill="#ffee5c"/><path d="M319.01051,141.32175v-11.86803h10.78912v11.86803z" fill="#ffee5c"/><path d="M336.45292,140.60248v-11.86803h10.78912v11.86803z" fill="#ffee5c"/><path d="M364.51051,113.44987v-11.86803h10.78911v11.86803z" fill="#ffee5c"/><path d="M381.7731,113.44987v-11.86803h10.78912v11.86803z" fill="#ffee5c"/><path d="M364.51051,141.32175v-11.86803h10.78911v11.86803z" fill="#ffee5c"/><path d="M381.95292,140.60248v-11.86802h10.78912v11.86802z" fill="#ffee5c"/><path d="M364.01051,167.94987v-11.86803h10.78911v11.86803z" fill="#ffee5c"/><path d="M381.2731,167.94987v-11.86803h10.78912v11.86803z" fill="#ffee5c"/><path d="M364.01051,195.82175v-11.86803h10.78911v11.86803z" fill="#ffee5c"/><path d="M381.45292,195.10248v-11.86802h10.78912v11.86802z" fill="#ffee5c"/><path d="M363.51051,222.94987v-11.86803h10.78911v11.86803z" fill="#ffee5c"/><path d="M380.7731,222.94987v-11.86803h10.78912v11.86803z" fill="#ffee5c"/><path d="M363.51051,250.82175v-11.86803h10.78911v11.86803z" fill="#ffee5c"/><path d="M380.95292,250.10248v-11.86803h10.78912v11.86803z" fill="#ffee5c"/><path d="M320.01051,170.94987v-11.86803h10.78911v11.86803z" fill="#ffee5c"/><path d="M337.2731,170.94987v-11.86803h10.78912v11.86803z" fill="#ffee5c"/><path d="M320.01051,198.82175v-11.86803h10.78911v11.86803z" fill="#ffee5c"/><path d="M337.45292,198.10248v-11.86802h10.78912v11.86802z" fill="#ffee5c"/><path d="M319.01051,226.94987v-11.86803h10.78911v11.86803z" fill="#ffee5c"/><path d="M336.2731,226.94987v-11.86803h10.78912v11.86803z" fill="#ffee5c"/><path d="M319.01051,254.82175v-11.86803h10.78911v11.86803z" fill="#ffee5c"/><path d="M336.45292,254.10248v-11.86802h10.78912v11.86802z" fill="#ffee5c"/><path d="M423.51051,125.19986v-11.86803h10.78911v11.86803z" fill="#ffee5c"/><path d="M440.7731,125.19986v-11.86803h10.78912v11.86803z" fill="#ffee5c"/><path d="M423.51051,153.07175v-11.86803h10.78911v11.86803z" fill="#ffee5c"/><path d="M440.95292,152.35247v-11.86803h10.78912v11.86803z" fill="#ffee5c"/><path d="M424.51051,180.19987v-11.86803h10.78911v11.86803z" fill="#ffee5c"/><path d="M441.7731,180.19987v-11.86803h10.78912v11.86803z" fill="#ffee5c"/><path d="M424.51051,208.07175v-11.86803h10.78911v11.86803z" fill="#ffee5c"/><path d="M441.95292,207.35248v-11.86802h10.78912v11.86802z" fill="#ffee5c"/><path d="M424.01051,234.19987v-11.86803h10.78911v11.86803z" fill="#ffee5c"/><path d="M441.2731,234.19987v-11.86803h10.78912v11.86803z" fill="#ffee5c"/><path d="M424.01051,262.07175v-11.86803h10.78911v11.86803z" fill="#ffee5c"/><path d="M441.45292,261.35248v-11.86803h10.78912v11.86803z" fill="#ffee5c"/></g></g></svg>