<svg version="1.1" xmlns="http://www.w3.org/2000/svg" xmlns:xlink="http://www.w3.org/1999/xlink" width="586.31542" height="538.27748" viewBox="0,0,586.31542,538.27748"><g transform="translate(48.28015,63.42827)"><g data-paper-data="{&quot;isPaintingLayer&quot;:true}" fill-rule="nonzero" stroke="none" stroke-width="0" stroke-linecap="butt" stroke-linejoin="miter" stroke-miterlimit="10" stroke-dasharray="" stroke-dashoffset="0" style="mix-blend-mode: normal"><path d="M538.03528,372.91142v-392.96293h-586.31542v392.96293z" fill="#3312ff"/><path d="M-48.17639,75.89532v-139.32359h584.08408v139.32359z" fill="#ffffff"/><path d="M-33.16138,83.81144v-9.49934h570.57057v9.49934z" fill="#393939"/><path d="M316.68847,16.20961c0,32.35242 -34.2845,58.57924 -76.57658,58.57924c-42.29208,0 -76.57658,-26.22682 -76.57658,-58.57924c0,-32.35242 34.2845,-58.57924 76.57658,-58.57924c42.29208,0 76.57658,26.22682 76.57658,58.57924z" fill="#09820f"/><path d="M22.15031,474.84922l-57.56804,-109.10383l487.63053,-119.77176l57.56804,109.10383z" fill="#12ccff"/><path d="M407,221.5v-7h86v7z" fill="#12ccff"/><path d="M374.26985,222.03754l-28.02512,-76.08039l15.48542,-7.99468l28.02512,76.08039z" fill="#12ccff"/><path d="M289.26985,222.03754l-28.02512,-76.08039l15.48542,-7.99468l28.02512,76.08039z" fill="#12ccff"/><path d="M172.26985,221.03754l-28.02512,-76.08039l15.48542,-7.99468l28.02512,76.08039z" fill="#12ccff"/><path d="M69.26985,220.03754l-28.02512,-76.08039l15.48542,-7.99468l28.02512,76.08039z" fill="#12ccff"/><path d="M42.26985,147.03754l-28.02512,-76.08039l15.48542,-7.99468l28.02512,76.08039z" fill="#12ccff"/><path d="M-2,220.5v-7h123v7z" fill="#12ccff"/></g></g></svg>