<svg version="1.1" xmlns="http://www.w3.org/2000/svg" xmlns:xlink="http://www.w3.org/1999/xlink" width="855.24025" height="448.90134" viewBox="0,0,855.24025,448.90134"><g transform="translate(53.29577,81.20164)"><g data-paper-data="{&quot;isPaintingLayer&quot;:true}" fill-rule="nonzero" stroke="none" stroke-width="0" stroke-linecap="butt" stroke-linejoin="miter" stroke-miterlimit="10" stroke-dasharray="" stroke-dashoffset="0" style="mix-blend-mode: normal"><path d="M-40.27926,366.10212v-427.91592h588.58859v427.91592z" fill="#00ffeb"/><path d="M-53.29577,367.6997v-42.04204h642.64264v42.04204z" fill="#00d01d"/><path d="M472.88413,240.76571l-44.09833,-82.45486l326.57824,-34.87822l44.09833,82.45486z" fill="#573800"/><path d="M441.97261,136.903l-44.09833,-82.45486l326.57824,-34.87822l44.09833,82.45486z" fill="#573800"/><path d="M473.63034,338.83143l-37.43494,-81.20673l328.31414,-8.45841l37.43494,81.20673z" fill="#573800"/><path d="M26.11082,332.73481v-131.8149h128.1018v131.8149z" fill="#a5a5a5"/><path d="M-9.61141,227.69572l84.70594,-66.48187l36.67965,46.73431l-84.70593,66.48187z" fill="#ff0000"/><path d="M149.17012,281.72488l-81.76952,-87.46814l52.00056,-41.86752l81.76952,87.46814z" fill="#ff0000"/><path d="M99.43044,195.38654l-24.76093,-33.46368l34.79699,-27.19266l24.76094,33.46369z" fill="#ff0000"/><path d="M70.4458,333.06154v-43.68828h37.91813v43.68828z" fill="#00c7ff"/><path d="M481.20455,339.58732v-349.91843h229.98172v349.91843z" fill="#cc8500"/><path d="M448.89877,137.52123l-32.47757,-83.75824l240.51858,-35.42955l32.47757,83.75824z" fill="#cc8500"/><path d="M474.86445,241.38394l-32.47757,-83.75824l240.51858,-35.42955l32.47757,83.75824z" fill="#cc8500"/><path d="M477.33737,342.77373l-32.47757,-83.75824l240.51858,-35.42954l32.47757,83.75824z" fill="#cc8500"/><path d="M382.00426,39.84082l-44.09833,-83.75823l326.57824,-35.42954l44.09833,83.75824z" fill="#573800"/><path d="M398.69648,37.98613l-44.09833,-83.75823l326.57824,-35.42954l44.09833,83.75824z" fill="#cc8500"/><g fill="#ffffff"><path d="M39.34363,2.26006c0,16.04764 -11.62523,29.05683 -25.96568,29.05683c-14.34045,0 -25.96568,-13.00919 -25.96568,-29.05683c0,-16.04764 11.62523,-29.05683 25.96568,-29.05683c14.34045,0 25.96568,13.00919 25.96568,29.05683z"/><path d="M50.47179,4.11476c-21.39686,0 -38.74244,-11.90202 -38.74244,-26.58391c0,-14.68188 17.34558,-26.58391 38.74244,-26.58391c21.39686,0 38.74244,11.90202 38.74244,26.58391c0,14.68188 -17.34558,26.58391 -38.74244,26.58391z"/><path d="M120.95005,4.73299c0,17.4134 -14.48541,31.52975 -32.35406,31.52975c-17.86865,0 -32.35406,-14.11635 -32.35406,-31.52975c0,-17.4134 14.48541,-31.52975 32.35406,-31.52975c17.86865,0 32.35406,14.11635 32.35406,31.52975z"/><path d="M78.91038,15.86113c0,10.35699 -12.17882,18.75299 -27.20214,18.75299c-15.02332,0 -27.20214,-8.396 -27.20214,-18.75299c0,-10.35699 12.17882,-18.75299 27.20214,-18.75299c15.02332,0 27.20214,8.396 27.20214,18.75299z"/></g><g fill="#ffffff"><path d="M262.79284,59.7549c0,16.04764 -11.62523,29.05683 -25.96568,29.05683c-14.34045,0 -25.96568,-13.00919 -25.96568,-29.05683c0,-16.04764 11.62523,-29.05683 25.96568,-29.05683c14.34045,0 25.96568,13.00919 25.96568,29.05683z"/><path d="M273.92099,61.60959c-21.39687,0 -38.74245,-11.90202 -38.74245,-26.58391c0,-14.68188 17.34559,-26.58391 38.74245,-26.58391c21.39686,0 38.74244,11.90202 38.74244,26.58391c0,14.68188 -17.34558,26.58391 -38.74244,26.58391z"/><path d="M344.39924,62.22782c0,17.4134 -14.4854,31.52975 -32.35406,31.52975c-17.86865,0 -32.35406,-14.11635 -32.35406,-31.52975c0,-17.4134 14.48541,-31.52975 32.35406,-31.52975c17.86865,0 32.35406,14.11635 32.35406,31.52975z"/><path d="M302.35959,73.35597c0,10.35699 -12.17882,18.75298 -27.20214,18.75298c-15.02333,0 -27.20214,-8.396 -27.20214,-18.75298c0,-10.35699 12.17881,-18.75298 27.20214,-18.75298c15.02332,0 27.20214,8.396 27.20214,18.75298z"/></g><path d="M15.50065,319.07247v-11.12815h24.72922v11.12815z" fill="#ffffff"/><path d="M40.42934,304.14379v-7.41877h34.6209v7.41877z" fill="#ffffff"/><path d="M75.11011,292.88178v-6.1823h22.2563v6.1823z" fill="#ffffff"/><path d="M99.60287,282.80207v-6.80053h25.34745v6.80053z" fill="#ffffff"/><path d="M121.14978,265.6312v-4.32761h30.29329v4.32761z" fill="#ffffff"/><path d="M120.5941,230.36348v-4.94584h26.58391v4.94584z" fill="#ffffff"/><path d="M66.38624,214.77914v-4.94584h21.01983v4.94584z" fill="#ffffff"/><path d="M49.89348,204.23003v-3.40027h22.87453v3.40027z" fill="#ffffff"/><path d="M63.90493,173.20666v-2.47292h25.96568v2.47292z" fill="#ffffff"/><path d="M84.63987,163.66944v-3.60635h21.01983v3.60635z" fill="#ffffff"/><path d="M106.99876,152.92306v-3.60635h21.01983v3.60635z" fill="#ffffff"/><path d="M25.22683,195.8967v-3.40027h22.87453v3.40027z" fill="#ffffff"/><path d="M142.48311,250.96454v-4.32761h30.29329v4.32761z" fill="#ffffff"/><path d="M82.26076,225.69682v-4.94584h26.58391v4.94584z" fill="#ffffff"/><path d="M50.90493,185.20666v-2.47292h25.96568v2.47292z" fill="#ffffff"/></g></g></svg>