<svg version="1.1" xmlns="http://www.w3.org/2000/svg" xmlns:xlink="http://www.w3.org/1999/xlink" width="485.98199" height="578.36036" viewBox="0,0,485.98199,578.36036"><g transform="translate(4.67412,207.27758)"><g stroke-miterlimit="10"><path d="M-3.17111,371.08278v-578.36036h481.98198v578.36036z" fill="#565656" stroke="none" stroke-width="NaN"/><path d="M25.85591,352.12784v-334.83483h441.44145v334.83484z" fill="#ffffff" stroke="none" stroke-width="0"/><path d="M451.28234,198.92062v-156.15616h28.52853v156.15616z" fill="#ffffff" stroke="none" stroke-width="0"/><path d="M-2.17712,343.56027v-156.15616h28.52853v156.15616z" fill="#ffd200" stroke="none" stroke-width="0"/><path d="M24.35291,353.57526v-336.33634h439.93994v336.33634z" fill="none" stroke="#000000" stroke-width="4"/><path d="M-2.67412,343.06474v-157.65765h24.02403v157.65765z" fill="none" stroke="#000000" stroke-width="4"/><path d="M464.29285,200.42211v-160.66066h15.01502v160.66066z" fill="none" stroke="#000000" stroke-width="4"/><path d="M25.34841,353.57526v-170.66967h147.65315v170.66967z" fill="none" stroke="#000000" stroke-width="4"/><path d="M171.99555,352.56922v-169.66967h143.93093v169.66967z" fill="none" stroke="#000000" stroke-width="4"/><path d="M315.13369,352.06922v-169.17567h148.43543v169.17568z" fill="none" stroke="#000000" stroke-width="4"/><path d="M79.81687,204.90257v-55h50v55z" fill="#ffffff" stroke="#ffffff" stroke-width="4"/><path d="M228.81688,200.90257v-55h50v55z" fill="#ffffff" stroke="#ffffff" stroke-width="4"/><path d="M374.81688,204.90257v-55h50v55z" fill="#ffffff" stroke="#ffffff" stroke-width="4"/><path d="M94.81688,219.90257v-55h50v55z" fill="#ffffff" stroke="#ffffff" stroke-width="4"/><path d="M323.31688,109.55573v-90h139v90z" fill="#969696" stroke="#000000" stroke-width="3.5"/><path d="M24.31688,351.58278v-169h149v169z" fill="#ffd200" stroke="none" stroke-width="0"/><path d="M309.31688,89.55573v-37h16.33333v37z" fill="#ffffff" stroke="none" stroke-width="0"/><path d="M77.81688,183.83277v-2.5h68v2.5z" fill="none" stroke="#7c4200" stroke-width="4"/><path d="M225.81688,184.83277v-4h57v4z" fill="none" stroke="#904c00" stroke-width="4"/><path d="M371.81688,184.33277v-4h57v4z" fill="none" stroke="#904c00" stroke-width="4"/><path d="M33.31688,314.58275v-68h26v68z" fill="#7b6000" stroke="none" stroke-width="0"/><path d="M41.31688,303.58275v-49h8v49z" fill="#000000" stroke="none" stroke-width="0"/><path d="M109.31688,306.83275v-55h47v55z" fill="none" stroke="#000000" stroke-width="1.5"/><path d="M141.98354,306.24942v-54.66667h14v54.66667z" fill="none" stroke="#000000" stroke-width="1.5"/><path d="M142.31688,279.58275v-0.33333h12.33333v0.33333z" fill="none" stroke="#000000" stroke-width="1.5"/><path d="M74.56688,301.58275v-43h21v43z" fill="#001aff" stroke="#000000" stroke-width="1.5"/><path d="M25.31688,236.58277v-51h43v51z" fill="none" stroke="#303030" stroke-width="1.5"/><path d="M147.31688,243.83277v-59h24v59z" fill="none" stroke="#000000" stroke-width="1.5"/><path d="M177.31688,316.58275v-68h26v68z" fill="#7b6000" stroke="none" stroke-width="0"/><path d="M185.31688,305.58275v-49h8v49z" fill="#000000" stroke="none" stroke-width="0"/><path d="M253.31688,308.58275v-55h47v55z" fill="none" stroke="#303030" stroke-width="1.5"/><path d="M285.98354,308.24942v-54.66667h14v54.66667z" fill="none" stroke="#303030" stroke-width="1.5"/><path d="M286.31688,281.58275v-0.33333h12.33334v0.33333z" fill="none" stroke="#303030" stroke-width="1.5"/><path d="M218.31688,303.58275v-43h21v43z" fill="#9eff00" stroke="#303030" stroke-width="1.5"/><path d="M172.31688,238.58277v-53h40v53z" fill="none" stroke="#303030" stroke-width="1.5"/><path d="M291.31688,245.58277v-61h21.66667v61z" fill="none" stroke="#303030" stroke-width="1.5"/><path d="M321.31688,315.58275v-68.52308h26v68.52308z" fill="#7b6000" stroke="none" stroke-width="0"/><path d="M329.31688,304.49814v-49.37692h8v49.37692z" fill="#000000" stroke="none" stroke-width="0"/><path d="M397.31688,307.52122v-55.42308h47v55.42308z" fill="none" stroke="#303030" stroke-width="1.5"/><path d="M429.98354,307.18532v-55.08718h14v55.08718z" fill="none" stroke="#303030" stroke-width="1.5"/><path d="M430.31688,280.31352v-0.3359h12.33334v0.3359z" fill="none" stroke="#303030" stroke-width="1.5"/><path d="M362.31688,302.48276v-43.33077h21v43.33077z" fill="#ff0000" stroke="#303030" stroke-width="1.5"/><path d="M316.98355,236.98277v-51.39231h39.33333v51.39231z" fill="none" stroke="#303030" stroke-width="1.5"/><path d="M435.31688,244.03659v-59.45385h26.33333v59.45385z" fill="none" stroke="#303030" stroke-width="1.5"/><path d="M176.01431,65.64246c0,19.88225 -27.9822,36 -62.5,36c-34.5178,0 -62.5,-16.11775 -62.5,-36c0,-19.88225 27.9822,-36 62.5,-36c34.5178,0 62.5,16.11775 62.5,36z" fill="#ff0000" stroke="none" stroke-width="0"/></g></g></svg>