<svg version="1.1" xmlns="http://www.w3.org/2000/svg" xmlns:xlink="http://www.w3.org/1999/xlink" width="484.98498" height="400.9009" viewBox="0,0,484.98498,400.9009"><defs><linearGradient x1="240" y1="0.57057" x2="240" y2="323.39339" gradientUnits="userSpaceOnUse" id="color-1"><stop offset="0" stop-color="#000000"/><stop offset="1" stop-color="#3dedff"/></linearGradient></defs><g transform="translate(3.24324,38.46847)"><g data-paper-data="{&quot;isPaintingLayer&quot;:true}" fill-rule="nonzero" stroke-linecap="butt" stroke-linejoin="miter" stroke-miterlimit="10" stroke-dasharray="" stroke-dashoffset="0" style="mix-blend-mode: normal"><path d="M-3.24324,362.43243v-39.03904h484.98498v39.03904z" fill="#a6a1b0" stroke="none" stroke-width="0"/><path d="M-1.74174,323.39339v-322.82282h483.48348v322.82282z" fill="url(#color-1)" stroke="none" stroke-width="0"/><path d="M273.03303,321.89189v-360.36036h175.67568v360.36036z" fill="#ffffff" stroke="none" stroke-width="0"/><path d="M291.05105,32.1021v-18.01802h42.04204v18.01802z" fill="#c4fff2" stroke="none" stroke-width="0"/><path d="M290.05106,78.10211v-18.01802h42.04204v18.01802z" fill="#c4fff2" stroke="none" stroke-width="0"/><path d="M290.05106,128.10211v-18.01802h42.04204v18.01802z" fill="#c4fff2" stroke="none" stroke-width="0"/><path d="M290.05106,180.10211v-18.01802h42.04204v18.01802z" fill="#c4fff2" stroke="none" stroke-width="0"/><path d="M289.05106,233.10211v-18.01802h42.04204v18.01802z" fill="#c4fff2" stroke="none" stroke-width="0"/><path d="M381.74925,143.03153v-145h48v145z" fill="#ff3232" stroke="none" stroke-width="0"/><text transform="translate(393.74925,33.87653) scale(0.9,0.9)" font-size="40" xml:space="preserve" fill="#ffffff" fill-rule="nonzero" stroke="none" stroke-width="1" stroke-linecap="butt" stroke-linejoin="miter" stroke-miterlimit="10" stroke-dasharray="" stroke-dashoffset="0" font-family="Pixel" font-weight="normal" text-anchor="start" style="mix-blend-mode: normal"><tspan x="0" dy="0">P</tspan></text><text transform="translate(397.74925,38.28153) scale(0.99837,0.99837)" font-size="40" xml:space="preserve" fill="#fff943" fill-rule="nonzero" stroke="none" stroke-width="1" stroke-linecap="butt" stroke-linejoin="miter" stroke-miterlimit="10" stroke-dasharray="" stroke-dashoffset="0" font-family="Pixel" font-weight="normal" text-anchor="start" style="mix-blend-mode: normal"><tspan x="0" dy="0">P</tspan></text><path d="M383.74925,58.03153v-17h43v17z" fill="#ffffff" stroke="#000000" stroke-width="0.5"/></g></g></svg>