<svg version="1.1" xmlns="http://www.w3.org/2000/svg" xmlns:xlink="http://www.w3.org/1999/xlink" width="648.78979" height="417.06358" viewBox="0,0,648.78979,417.06358"><g transform="translate(57.29728,14.84136)"><g data-paper-data="{&quot;isPaintingLayer&quot;:true}" fill-rule="nonzero" stroke="none" stroke-width="0" stroke-linecap="butt" stroke-linejoin="miter" stroke-miterlimit="10" stroke-dasharray="" stroke-dashoffset="0" style="mix-blend-mode: normal"><path d="M-40.27926,331.47801v-346.31937h631.77177v346.31937z" fill="#00ffeb"/><path d="M-57.29728,402.22222v-76.57657h642.64264v76.57657z" fill="#00d01d"/><path d="M170.75076,331.86637v-296.31081h168.16817v296.31081z" fill="#b3b3b3"/><path d="M338.35137,35.49197c0,8.28427 -37.38422,15 -83.5,15c-46.11578,0 -83.5,-6.71573 -83.5,-15c0,-8.28427 37.38422,-15 83.5,-15c46.11578,0 83.5,6.71573 83.5,15z" fill="#989898"/><path d="M164.42312,329.39939v-15.87079h47.61238v15.87079z" fill="#ffffff"/><path d="M224.73213,306.12223v-10.58053h53.9607v10.58053z" fill="#ffffff"/><path d="M281.86699,287.07728v-8.46442h34.91575v8.46442z" fill="#ffffff"/><path d="M322.073,275.4387v-6.34832h42.32211v6.34832z" fill="#ffffff"/><path d="M358.0468,259.5679v-8.46442h31.74159v8.46442z" fill="#ffffff"/><path d="M331.59547,233.11659v-8.46442h25.39327v8.46442z" fill="#ffffff"/><path d="M301.97,214.07163v-8.46442h21.16106v8.46442z" fill="#ffffff"/><path d="M264.93814,192.91058v-13.75469h24.33521v13.75469z" fill="#ffffff"/><path d="M237.42877,170.69147v-6.34832h23.27716v6.34832z" fill="#ffffff"/><path d="M207.8033,154.82068v-11.63858h25.39327v11.63858z" fill="#ffffff"/><path d="M176.49851,132.99197v-9h36v9z" fill="#ffffff"/><path d="M213.49851,104.99197v-7h42v7z" fill="#ffffff"/><path d="M266.49851,89.99197v-5h40v5z" fill="#ffffff"/><path d="M297.49851,63.99197v-6h35v6z" fill="#ffffff"/></g></g></svg>